<svg width="97" height="48" viewBox="0 0 97 48" fill="none" xmlns="http://www.w3.org/2000/svg">
<path d="M0 17.3165V0.982788H5.70979C7.45705 0.982788 8.9729 1.3182 10.2599 1.98902C11.547 2.65984 12.548 3.61148 13.2682 4.84392C13.9859 6.07636 14.3447 7.51941 14.3447 9.17306C14.3447 10.8267 13.9859 12.262 13.2682 13.4788C12.5506 14.6956 11.547 15.6395 10.2599 16.3103C8.9729 16.9811 7.45445 17.3165 5.70979 17.3165H0ZM3.29951 14.5084H5.59279C7.30884 14.5084 8.62969 14.0404 9.55792 13.1044C10.4861 12.1684 10.9516 10.8579 10.9516 9.17306C10.9516 7.4882 10.4861 6.16216 9.55792 5.19493C8.62969 4.2277 7.30624 3.74408 5.59279 3.74408H3.29951V14.5084Z" fill="#CCCCCC"/>
<path d="M21.786 17.4803C20.6472 17.4803 19.641 17.1969 18.7673 16.6275C17.8937 16.0581 17.2073 15.2703 16.7081 14.264C16.2088 13.2578 15.9592 12.1163 15.9592 10.8371C15.9592 9.55786 16.2088 8.39562 16.7081 7.39719C17.2073 6.39876 17.8937 5.61613 18.7673 5.04671C19.641 4.47729 20.6472 4.19128 21.786 4.19128C22.8157 4.19128 23.7127 4.45649 24.4771 4.98691C25.2415 5.51733 25.7954 6.25055 26.1386 7.18658V4.35509H29.4615V17.3191H27.8702C27.3398 17.3191 26.9186 17.1605 26.6066 16.8407C26.2946 16.5209 26.1386 16.0971 26.1386 15.5641V14.4642C25.7954 15.4159 25.2415 16.1569 24.4771 16.6873C23.7127 17.2177 22.8157 17.4829 21.786 17.4829V17.4803ZM22.7221 14.602C23.3305 14.602 23.8921 14.4538 24.4069 14.1574C24.9217 13.861 25.3377 13.432 25.6602 12.8704C25.98 12.3088 26.1386 11.6301 26.1386 10.8345C26.1386 10.0389 25.9774 9.33686 25.6602 8.77524C25.3403 8.21362 24.9243 7.7898 24.4069 7.49859C23.8921 7.20998 23.3305 7.06438 22.7221 7.06438C22.1136 7.06438 21.5936 7.20998 21.071 7.49859C20.5484 7.7872 20.1272 8.21362 19.8074 8.77524C19.4875 9.33686 19.3289 10.0233 19.3289 10.8345C19.3289 11.6457 19.4875 12.3088 19.8074 12.8704C20.1272 13.432 20.5484 13.861 21.071 14.1574C21.5936 14.4538 22.1422 14.602 22.7221 14.602Z" fill="#CCCCCC"/>
<path d="M32.6675 17.3166V4.35256H35.967V7.09045C36.1698 6.51323 36.4818 6.00622 36.903 5.5694C37.3242 5.13259 37.8157 4.79458 38.3773 4.55017C38.9389 4.30836 39.5161 4.18616 40.1089 4.18616C41.0918 4.18616 41.9524 4.40456 42.696 4.84138C43.437 5.27819 44.0091 5.90481 44.4173 6.72644C44.8229 7.54547 45.0257 8.5335 45.0257 9.68534V17.314H41.7496V10.2938C41.7496 9.26413 41.4844 8.4581 40.954 7.87308C40.4235 7.28806 39.7293 6.99425 38.8713 6.99425C38.2941 6.99425 37.787 7.14506 37.3502 7.44927C36.9134 7.75348 36.5728 8.17209 36.331 8.69991C36.0892 9.23032 35.9696 9.83875 35.9696 10.5252V17.3114H32.6701L32.6675 17.3166Z" fill="#CCCCCC"/>
<path d="M52.8857 17.4804C51.9497 17.4804 51.1073 17.3296 50.3584 17.0254C49.6096 16.7212 48.9856 16.2974 48.4864 15.7514C47.9872 15.2053 47.6362 14.5969 47.4333 13.9261L50.5223 13.2241C50.6627 13.7389 50.9435 14.1497 51.3647 14.4539C51.7859 14.7581 52.2773 14.9089 52.8389 14.9089C53.4942 14.9089 53.9882 14.7841 54.3236 14.5345C54.659 14.2849 54.828 13.9729 54.828 13.5985C54.828 13.2241 54.6512 12.9069 54.3002 12.6989C53.9492 12.4882 53.4968 12.3166 52.9429 12.184C52.3891 12.0514 51.7989 11.9032 51.1775 11.7394C50.5535 11.5756 49.9606 11.3572 49.399 11.0842C48.8374 10.8112 48.3798 10.4368 48.0314 9.96096C47.6804 9.48515 47.5036 8.84812 47.5036 8.0551C47.5036 7.35308 47.709 6.70565 48.125 6.11283C48.5384 5.52001 49.126 5.052 49.8904 4.70879C50.6549 4.36558 51.5675 4.19397 52.6283 4.19397C53.5488 4.19397 54.36 4.33437 55.062 4.61518C55.764 4.89599 56.3412 5.29901 56.7937 5.82162C57.2461 6.34424 57.5581 6.95526 57.7297 7.65729L54.7344 8.45291C54.594 7.90689 54.347 7.49088 53.9986 7.19967C53.6476 6.91106 53.1587 6.76546 52.5373 6.76546C51.9159 6.76546 51.4921 6.87986 51.1801 7.10347C50.8681 7.32967 50.7121 7.63128 50.7121 8.0057C50.7121 8.38011 50.8889 8.69472 51.2399 8.90533C51.5909 9.11593 52.0433 9.29534 52.5971 9.44354C53.1509 9.59175 53.7386 9.74775 54.3626 9.91156C54.9866 10.0754 55.5768 10.2964 56.128 10.5772C56.6793 10.858 57.1343 11.2402 57.4853 11.7238C57.8363 12.2074 58.0105 12.8471 58.0105 13.6427C58.0105 14.3447 57.7999 14.9869 57.3787 15.5719C56.9575 16.157 56.3646 16.6224 55.6002 16.9656C54.8358 17.3088 53.931 17.4804 52.8857 17.4804Z" fill="#CCCCCC"/>
<path d="M60.5847 17.3166V0H63.8842V9.59432C64.6643 9.43831 65.4053 9.1315 66.1073 8.67129C66.8093 8.21107 67.4177 7.61565 67.9326 6.88243C68.4474 6.1492 68.8062 5.30678 69.009 4.35514H72.5191C72.2695 5.35358 71.8665 6.28181 71.3153 7.13984C70.7615 7.99787 70.1166 8.74669 69.386 9.38631C68.6528 10.0259 67.8884 10.5017 67.0927 10.8138C67.7012 10.9854 68.3096 11.2792 68.918 11.6926C69.5264 12.106 70.0958 12.6052 70.6263 13.1902C71.1567 13.7753 71.6091 14.4175 71.9835 15.1195C72.3579 15.8215 72.6075 16.5548 72.7323 17.3192H69.2222C69.0662 16.6016 68.8088 15.9515 68.45 15.3665C68.0912 14.7815 67.6726 14.2667 67.1967 13.8221C66.7209 13.3774 66.1983 13.016 65.6289 12.7352C65.0595 12.4544 64.4796 12.2828 63.8842 12.2204V17.3218H60.5847V17.3166Z" fill="#CCCCCC"/>
<path d="M11.9578 32.0018C11.6302 31.4012 11.1856 30.9098 10.624 30.5276C10.2157 30.2494 9.76853 30.0648 9.28751 29.9738C9.60992 29.8724 9.91413 29.7398 10.2027 29.5812C10.7644 29.2691 11.2168 28.8323 11.56 28.2707C11.9032 27.7091 12.0748 27.0383 12.0748 26.2582C12.0748 25.4782 11.8668 24.7268 11.456 24.095C11.0426 23.4632 10.4419 22.9639 9.65412 22.5973C8.8663 22.2307 7.90166 22.0487 6.76283 22.0487H0V38.3824H7.04363C8.18247 38.3824 9.1523 38.1952 9.95833 37.8208C10.7618 37.4464 11.378 36.9238 11.807 36.253C12.236 35.5822 12.4492 34.8177 12.4492 33.9597C12.4492 33.2577 12.2854 32.6077 11.9578 32.007V32.0018ZM3.29951 24.7112H6.27141C7.03583 24.7112 7.63125 24.8906 8.06027 25.2494C8.48928 25.6082 8.70249 26.1074 8.70249 26.7471C8.70249 27.4179 8.48668 27.9249 8.06027 28.2681C7.63125 28.6113 7.03323 28.7829 6.27141 28.7829H3.29951V24.7112ZM8.44768 35.1349C8.01087 35.5016 7.39465 35.6862 6.59902 35.6862H3.29951V31.3102H6.52882C7.30884 31.3102 7.93286 31.5078 8.40088 31.9056C8.8689 32.3034 9.1029 32.8521 9.1029 33.5541C9.1029 34.2561 8.8845 34.7683 8.44768 35.1349Z" fill="#CCCCCC"/>
<path d="M21.0867 38.541C19.8387 38.541 18.718 38.268 17.7274 37.722C16.7368 37.176 15.949 36.4038 15.3639 35.4053C14.7789 34.4069 14.4851 33.2291 14.4851 31.8718C14.4851 30.5146 14.7815 29.3419 15.3743 28.3513C15.9672 27.3607 16.7706 26.5962 17.7846 26.058C18.7987 25.5198 19.9297 25.2494 21.1777 25.2494C22.4258 25.2494 23.5516 25.5198 24.5578 26.058C25.5641 26.5962 26.3623 27.3607 26.9551 28.3513C27.5479 29.3419 27.8444 30.5146 27.8444 31.8718C27.8444 33.2291 27.5427 34.4069 26.9447 35.4053C26.3441 36.4038 25.5329 37.176 24.511 37.722C23.4892 38.268 22.3452 38.541 21.0815 38.541H21.0867ZM21.0867 35.6627C21.6639 35.6627 22.21 35.5275 22.7248 35.2519C23.2396 34.9789 23.6608 34.5577 23.9884 33.9883C24.316 33.4189 24.4798 32.7142 24.4798 31.8718C24.4798 31.0294 24.3186 30.3274 24.0014 29.7657C23.6816 29.2041 23.2682 28.7881 22.7612 28.5151C22.2542 28.2421 21.7107 28.1043 21.1335 28.1043C20.5563 28.1043 20.0233 28.2421 19.5319 28.5151C19.0405 28.7881 18.6374 29.2067 18.3254 29.7657C18.0134 30.3274 17.8574 31.0294 17.8574 31.8718C17.8574 32.7142 18.0056 33.4215 18.302 33.9883C18.5984 34.5577 18.9937 34.9789 19.4825 35.2519C19.9739 35.5249 20.5069 35.6627 21.0867 35.6627Z" fill="#CCCCCC"/>
<path d="M29.9763 34.8905V21.0607H33.2758V34.6799C33.2758 35.0231 33.3772 35.2805 33.58 35.4522C33.7828 35.6238 34.0247 35.7096 34.3055 35.7096C34.5083 35.7096 34.6799 35.6784 34.8203 35.616L35.4287 38.1198C34.8827 38.4006 34.2587 38.541 33.5566 38.541C32.9794 38.541 32.4126 38.4214 31.8614 38.1796C31.3076 37.9378 30.8551 37.5478 30.5041 37.0096C30.1531 36.4714 29.9789 35.7668 29.9789 34.8905H29.9763Z" fill="#CCCCCC"/>
<path d="M74.3687 19.2498C75.0223 19.2498 75.6062 19.4659 76.0737 19.8972C76.5434 20.3285 76.7798 20.9128 76.7798 21.6501C76.7798 22.3875 76.5435 22.9718 76.0737 23.4031C75.6039 23.8344 75.0337 24.0505 74.3687 24.0505C73.7038 24.0504 73.1525 23.8343 72.6851 23.4031C72.2152 22.9717 71.979 22.3876 71.979 21.6501C71.979 20.9127 72.2153 20.3286 72.6851 19.8972C73.1548 19.466 73.7151 19.2498 74.3687 19.2498ZM74.3687 20.5857C74.0965 20.5858 73.8811 20.6831 73.686 20.8777C73.4886 21.0725 73.3882 21.3235 73.3882 21.6296C73.3883 21.9355 73.4864 22.1859 73.686 22.3806C73.8834 22.5752 74.1101 22.6725 74.3687 22.6726C74.641 22.6726 74.8733 22.5754 75.064 22.3806C75.2544 22.1859 75.349 21.9355 75.3491 21.6296C75.3491 21.3236 75.2545 21.0725 75.064 20.8777C74.8733 20.6829 74.641 20.5857 74.3687 20.5857Z" fill="#CCCCCC"/>
<path d="M41.2936 23.4033C41.7635 22.9719 41.9995 22.3875 41.9995 21.65C41.9995 20.9126 41.7635 20.3281 41.2936 19.8968C40.826 19.4654 40.2427 19.2498 39.589 19.2498C38.9353 19.2498 38.3747 19.4654 37.9049 19.8968C37.435 20.3281 37.199 20.9126 37.199 21.65C37.199 22.3875 37.435 22.9719 37.9049 23.4033C38.3724 23.8346 38.924 24.0503 39.589 24.0503C40.2541 24.0503 40.8238 23.8346 41.2936 23.4033Z" fill="#CCCCCC"/>
<path d="M37.9377 38.3773V25.4133H41.2607V38.3773H37.9377Z" fill="#CCCCCC"/>
<path d="M60.5846 34.8905V21.0607H63.8841V34.6799C63.8841 35.0231 63.9855 35.2805 64.1884 35.4522C64.3912 35.6238 64.633 35.7096 64.9138 35.7096C65.1166 35.7096 65.2882 35.6784 65.4286 35.616L66.037 38.1198C65.491 38.4006 64.867 38.541 64.165 38.541C63.5877 38.541 63.0209 38.4214 62.4671 38.1796C61.9133 37.9378 61.4609 37.5478 61.1098 37.0096C60.7588 36.4714 60.582 35.7668 60.582 34.8905H60.5846Z" fill="#CCCCCC"/>
<path d="M73.0338 38.5411C71.895 38.5411 70.8888 38.2577 70.0151 37.6883C69.1415 37.1189 68.4551 36.331 67.9558 35.3248C67.4566 34.3186 67.207 33.1771 67.207 31.8979C67.207 30.6187 67.4566 29.4564 67.9558 28.458C68.4551 27.4595 69.1415 26.6769 70.0151 26.1075C70.8888 25.5381 71.895 25.2521 73.0338 25.2521C74.0635 25.2521 74.9605 25.5173 75.7249 26.0477C76.4893 26.5781 77.0432 27.3113 77.3864 28.2474V25.4159H80.7093V38.3799H79.118C78.5876 38.3799 78.1664 38.2213 77.8544 37.9015C77.5424 37.5817 77.3864 37.1579 77.3864 36.6249V35.525C77.0432 36.4767 76.4893 37.2177 75.7249 37.7481C74.9605 38.2785 74.0635 38.5437 73.0338 38.5437V38.5411ZM73.9699 35.6628C74.5783 35.6628 75.1399 35.5146 75.6547 35.2182C76.1695 34.9218 76.5855 34.4928 76.9054 33.9312C77.2252 33.3695 77.3864 32.6909 77.3864 31.8953C77.3864 31.0997 77.2252 30.3976 76.9054 29.836C76.5855 29.2744 76.1695 28.8506 75.6547 28.5594C75.1399 28.2708 74.5783 28.1252 73.9699 28.1252C73.3926 28.1252 72.844 28.2708 72.3214 28.5594C71.7988 28.848 71.3776 29.2744 71.0578 29.836C70.7379 30.3976 70.5793 31.0841 70.5793 31.8953C70.5793 32.7065 70.7379 33.3695 71.0578 33.9312C71.3776 34.4928 71.7988 34.9218 72.3214 35.2182C72.844 35.5146 73.3926 35.6628 73.9699 35.6628Z" fill="#CCCCCC"/>
<path d="M83.6552 38.3773V25.4132H86.9547V28.1511C87.1575 27.5739 87.4695 27.0669 87.8907 26.6301C88.3119 26.1933 88.8034 25.8552 89.365 25.6108C89.9266 25.369 90.5038 25.2468 91.0966 25.2468C92.0795 25.2468 92.9401 25.4652 93.6811 25.902C94.4221 26.3389 94.9942 26.9655 95.4024 27.7871C95.808 28.6061 96.0108 29.5942 96.0108 30.746V38.3747H92.7347V31.3544C92.7347 30.3248 92.4695 29.5188 91.9391 28.9337C91.4086 28.3487 90.7144 28.0549 89.8564 28.0549C89.2792 28.0549 88.7722 28.2057 88.3353 28.5099C87.8985 28.8141 87.5579 29.2328 87.3161 29.7606C87.0743 30.291 86.9521 30.8994 86.9521 31.5858V38.3721H83.6526L83.6552 38.3773Z" fill="#CCCCCC"/>
<path d="M53.3148 40.4677H49.2821C48.0756 40.4677 47.2254 39.9737 47.2254 39.0143C47.2254 38.5905 47.4438 38.1797 47.735 37.8702C48.6528 38.3175 49.6747 38.5437 50.8057 38.5437C52.0693 38.5437 53.2108 38.2707 54.2352 37.7246C55.2571 37.1786 56.0683 36.4064 56.6689 35.408C57.2695 34.4095 57.5685 33.2317 57.5685 31.8745C57.5685 30.5172 57.2721 29.3446 56.6793 28.3539C56.5857 28.1953 56.4817 28.0445 56.3777 27.8989C57.4073 27.2489 57.9533 26.4195 57.9533 25.3586C57.9533 24.8932 57.8441 24.3706 57.6231 23.8506H54.6616C54.854 24.29 54.9372 24.6462 54.9372 25.0024C54.9372 25.4236 54.7942 25.8267 54.4796 26.1751C54.4146 26.1361 54.3496 26.0971 54.2846 26.0633C53.2784 25.525 52.15 25.2546 50.9045 25.2546C49.6591 25.2546 48.5254 25.525 47.5114 26.0633C46.4974 26.6015 45.6939 27.3659 45.1011 28.3565C44.5083 29.3472 44.2119 30.5198 44.2119 31.8771C44.2119 33.2343 44.5031 34.4121 45.0907 35.4106C45.2415 35.6654 45.4053 35.9072 45.5821 36.1334C44.6461 36.903 43.8323 38.0653 43.8323 39.6513C43.8323 42.176 45.8083 43.463 48.4396 43.463H51.4843C53.5696 43.463 54.0636 44.3679 54.0636 45.2467C54.0636 45.8785 53.762 46.5363 53.3226 46.9758L56.5337 47.826C57.4671 46.7833 57.9611 45.4937 57.9611 44.2873C57.9611 42.2566 56.4791 40.4729 53.3252 40.4729L53.3148 40.4677ZM48.0444 29.7658C48.3564 29.2042 48.7594 28.7881 49.2509 28.5151C49.7423 28.2421 50.2753 28.1043 50.8525 28.1043C51.4297 28.1043 51.9705 28.2421 52.4802 28.5151C52.9872 28.7881 53.4006 29.2068 53.7204 29.7658C54.0402 30.3274 54.1988 31.0294 54.1988 31.8719C54.1988 32.7143 54.035 33.4215 53.7074 33.9883C53.3798 34.5577 52.9586 34.979 52.4438 35.252C51.9289 35.525 51.3829 35.6628 50.8057 35.6628C50.2285 35.6628 49.6955 35.5276 49.2015 35.252C48.71 34.979 48.3148 34.5577 48.021 33.9883C47.7246 33.4189 47.5764 32.7143 47.5764 31.8719C47.5764 31.0294 47.7324 30.3274 48.0444 29.7658Z" fill="#CCCCCC"/>
</svg>
