<svg width="172" height="34" viewBox="0 0 172 34" fill="none" xmlns="http://www.w3.org/2000/svg">
<g clip-path="url(#clip0_291_108)">
<path d="M44.7937 16.1358L42.8195 15.6109C42.3145 15.5079 41.8434 15.2685 41.4521 14.916C41.3039 14.7599 41.1883 14.5728 41.1128 14.3667C41.0372 14.1606 41.0034 13.9401 41.0134 13.7193C41.0069 13.4432 41.0673 13.1699 41.1888 12.9254C41.3104 12.6808 41.4891 12.4731 41.7081 12.3219C42.2857 11.9359 42.9584 11.7583 43.6384 11.7969C44.2673 11.7969 44.8815 11.9127 45.4665 12.1444C46.088 12.4146 46.6583 12.7774 47.1702 13.2329L47.799 11.7969C47.2747 11.274 46.6482 10.8787 45.9637 10.6389C45.218 10.3559 44.4308 10.2148 43.6384 10.222C42.8292 10.2006 42.0247 10.3584 41.2767 10.6852C40.6551 10.9554 40.114 11.3955 39.7192 11.9668C39.3445 12.5174 39.1471 13.1804 39.1562 13.8583C39.1478 14.2487 39.2134 14.6368 39.349 15.0001C39.4846 15.3633 39.6875 15.6943 39.9459 15.9737C40.5681 16.6117 41.3581 17.0368 42.2126 17.1936L44.1795 17.6799C44.7353 17.788 45.2544 18.0274 45.7151 18.3748C45.8683 18.5198 45.9891 18.6989 46.0687 18.8991C46.1484 19.0994 46.1849 19.3159 46.1757 19.5329C46.1853 19.8076 46.127 20.0802 46.0065 20.3239C45.886 20.5675 45.7074 20.7739 45.4884 20.9225C44.8815 21.2777 44.1869 21.4475 43.4849 21.4012C41.9937 21.4424 40.5372 20.9224 39.3755 19.9343L38.7467 21.4012C39.902 22.4589 41.4521 22.9839 43.4191 22.9839C44.5989 23.0497 45.7676 22.7142 46.7534 22.0266C47.1424 21.7449 47.4586 21.3649 47.6732 20.9213C47.8877 20.4777 47.9938 19.9845 47.9818 19.4865C47.9921 19.0973 47.9288 18.7097 47.7957 18.3465C47.6627 17.9833 47.4624 17.6518 47.2067 17.3711C46.5352 16.7174 45.6958 16.2876 44.7937 16.1358ZM50.9724 22.8449H52.8516V10.4999H50.9724V22.8527V22.8449ZM50.7896 7.56612H53.0856V5.30402H50.7896V7.57384V7.56612ZM69.4427 10.2374C68.4736 10.2077 67.5224 10.5171 66.7372 11.1175C66.2181 11.5229 65.8033 12.0591 65.5307 12.6771C65.354 12.0812 65.0341 11.5439 64.6021 11.1175C63.8709 10.4853 62.9429 10.1633 61.999 10.2142C61.1276 10.1885 60.2714 10.4591 59.5568 10.9863C59.0017 11.4156 58.5691 11.9979 58.3064 12.6694L58.1236 10.5076H56.3395C56.4126 11.0789 56.4638 11.6502 56.4857 12.2293C56.515 12.8083 56.5296 13.3874 56.5296 13.951V22.8295H58.4088V15.7884C58.3537 14.7591 58.6552 13.7437 59.257 12.9318C59.5427 12.5802 59.9007 12.3021 60.3037 12.1188C60.7066 11.9355 61.144 11.8518 61.5822 11.8741C61.9262 11.8448 62.272 11.9007 62.5919 12.0374C62.9118 12.1742 63.197 12.3879 63.4249 12.6616C63.8782 13.4105 64.083 14.2907 64.0098 15.1708V22.8372H65.8817V15.7884C65.8273 14.7592 66.1287 13.7441 66.7299 12.9318C67.0119 12.5816 67.3661 12.3042 67.7653 12.1208C68.1646 11.9375 68.5983 11.8531 69.0332 11.8741C69.3764 11.8423 69.7218 11.8971 70.0409 12.034C70.36 12.171 70.6437 12.3861 70.8685 12.6616C71.3073 13.4105 71.5193 14.2829 71.4535 15.1708V22.8372H73.3254V15.0859C73.3254 13.4491 73.0037 12.237 72.3529 11.4264C71.9863 11.0076 71.5348 10.6817 71.0321 10.4731C70.5294 10.2646 69.9885 10.1787 69.45 10.222L69.4427 10.2451V10.2374ZM85.4122 11.0481C84.6066 10.5002 83.6648 10.218 82.7068 10.2374C81.7618 10.204 80.8308 10.4848 80.0452 11.0403C79.4336 11.5027 78.9674 12.1481 78.7071 12.8932L78.5169 10.4999H76.7255C76.7986 11.0712 76.8571 11.658 76.8717 12.2293C76.8717 12.8083 76.9083 13.3874 76.9083 13.951V28.0794H78.7875V20.5365C79.0603 21.187 79.4949 21.7473 80.0452 22.1578C80.8354 22.7305 81.7779 23.0226 82.736 22.9916C83.6818 23.0213 84.6148 22.7549 85.4176 22.226C86.2204 21.6971 86.8571 20.9293 87.2475 20.0192C87.7082 18.9615 87.9349 17.8189 87.9056 16.6531C87.9276 15.495 87.7082 14.337 87.2475 13.2793C86.8468 12.3683 86.2138 11.5931 85.4195 11.0403L85.4122 11.0635V11.0481ZM85.0027 20.1428C84.6657 20.5318 84.2556 20.8424 83.7986 21.0549C83.3417 21.2675 82.8478 21.3772 82.3485 21.3772C81.8491 21.3772 81.3553 21.2675 80.8983 21.0549C80.4413 20.8424 80.0312 20.5318 79.6942 20.1428C79.0177 19.1162 78.6904 17.878 78.7656 16.63C78.7656 15.1167 79.0727 13.951 79.6942 13.1326C80.0171 12.7223 80.427 12.398 80.8906 12.1861C81.3543 11.9742 81.8588 11.8805 82.3631 11.9127C82.8659 11.8876 83.3673 11.9885 83.8261 12.2072C84.2849 12.4259 84.6881 12.7563 85.0027 13.1712C85.6896 14.1905 86.0251 15.4275 85.9533 16.6763C86.0266 17.9013 85.6959 19.1153 85.0174 20.1119L85.0027 20.1428ZM98.2741 10.9554C97.466 10.4563 96.541 10.2075 95.6052 10.2374C94.6119 10.2115 93.6323 10.4854 92.7813 11.027C91.9304 11.5686 91.2434 12.3553 90.8012 13.2947C90.3232 14.3356 90.0852 15.4811 90.1066 16.6377C90.0773 17.8189 90.3259 18.9924 90.8158 20.0578C91.2605 20.9822 91.9587 21.7436 92.8193 22.2427C93.7825 22.7704 94.8569 23.0308 95.9416 22.9993C96.7751 22.9993 97.6014 22.8527 98.3838 22.567C99.115 22.3122 99.7731 21.903 100.343 21.3626L99.7219 19.9189C98.668 20.8503 97.3378 21.3612 95.9635 21.3626C95.4151 21.4039 94.8649 21.3158 94.3527 21.1048C93.8405 20.8939 93.3792 20.5652 93.0021 20.1428C92.344 19.3476 92.0004 18.1663 92.0004 16.6222H100.592V16.2517C100.62 15.144 100.42 14.0432 100.007 13.0245C99.6462 12.1584 99.0444 11.4287 98.2814 10.9322L98.2741 10.9554ZM92.1027 15.3252C92.1905 14.4914 92.4903 13.7039 92.9802 13.0399C93.2964 12.6244 93.7007 12.2933 94.1606 12.0733C94.6204 11.8534 95.1228 11.7508 95.6271 11.7738C96.0967 11.7445 96.5661 11.8344 96.9961 12.0358C97.4261 12.2373 97.8041 12.5445 98.0986 12.9318C98.5739 13.6267 98.8371 14.4682 98.8737 15.3252H92.1027ZM103.436 22.8372H105.316V4.81763H103.436V22.8449V22.8372ZM123.23 10.5617H120.846L115.333 16.1667V4.81763H113.454V22.8449H115.333V16.9002L121.329 22.8449H123.786L117.388 16.4292L123.23 10.5617ZM130.835 10.2374C129.968 10.2307 129.122 10.5175 128.422 11.0558C127.858 11.49 127.435 12.0963 127.208 12.7929L127.018 10.5231H125.226C125.299 11.0944 125.358 11.6734 125.373 12.2524C125.402 12.8238 125.409 13.4028 125.409 13.9741V22.8372H127.288V15.7884C127.288 15.1631 127.405 14.5377 127.632 13.9664C127.851 13.3874 128.217 12.8932 128.692 12.5381C129.263 12.134 129.943 11.9363 130.63 11.9745C131.047 11.9591 131.464 12.0286 131.858 12.1675L131.902 10.3609C131.554 10.2611 131.195 10.2092 130.835 10.2065V10.2374ZM141.05 10.9554C140.239 10.4564 139.312 10.2077 138.373 10.2374C137.38 10.2073 136.4 10.4796 135.549 11.0217C134.699 11.5638 134.014 12.3529 133.577 13.2947C133.096 14.3346 132.858 15.4808 132.882 16.6377C132.851 17.8217 133.095 18.9957 133.591 20.0578C134.033 20.9845 134.732 21.7468 135.595 22.2427C136.555 22.7707 137.627 23.0312 138.71 22.9993C139.543 22.9993 140.37 22.8527 141.159 22.567C141.883 22.3122 142.549 21.903 143.119 21.3626L142.49 19.9189C141.437 20.8468 140.11 21.3575 138.739 21.3626C138.191 21.4028 137.641 21.3142 137.129 21.1033C136.617 20.8924 136.155 20.5644 135.778 20.1428C135.12 19.3476 134.776 18.1663 134.776 16.6222H143.346V16.2517C143.373 15.1432 143.171 14.0418 142.753 13.0245C142.397 12.1624 141.804 11.4333 141.05 10.9322V10.9554ZM134.871 15.302C134.966 14.4682 135.266 13.6807 135.748 13.0091C136.067 12.5948 136.473 12.2652 136.934 12.0466C137.395 11.8281 137.898 11.7267 138.403 11.7506C138.872 11.7204 139.341 11.8091 139.771 12.0092C140.201 12.2093 140.579 12.5151 140.874 12.901C141.342 13.6035 141.605 14.4451 141.642 15.2943H134.871V15.302ZM154.592 12.5844C154.319 11.975 153.904 11.4489 153.385 11.0558C152.59 10.4734 151.639 10.1757 150.672 10.2065C149.713 10.1854 148.768 10.459 147.952 10.994C147.16 11.5279 146.53 12.2919 146.139 13.1943C145.69 14.2464 145.47 15.3914 145.495 16.545C145.473 17.7108 145.693 18.8612 146.153 19.9266C146.543 20.8449 147.172 21.6269 147.967 22.181C148.771 22.7214 149.722 22.9993 150.672 22.9762C151.637 23.0067 152.586 22.7149 153.385 22.1424C153.922 21.7411 154.346 21.1943 154.613 20.5597V22.8372H156.478V4.81763H154.592V12.5844ZM153.678 20.1042C153.362 20.5142 152.959 20.8398 152.501 21.0545C152.044 21.2691 151.545 21.3668 151.045 21.3394C150.535 21.3655 150.027 21.2645 149.56 21.0445C149.094 20.8246 148.684 20.4919 148.362 20.0733C147.669 19.0478 147.331 17.8023 147.404 16.545C147.331 15.3098 147.674 14.0899 148.362 13.094C148.689 12.6873 149.101 12.3656 149.565 12.1541C150.029 11.9425 150.533 11.8467 151.038 11.8741C151.54 11.845 152.042 11.9417 152.502 12.1564C152.962 12.3711 153.367 12.6976 153.685 13.1094C154.359 14.1257 154.686 15.3532 154.613 16.5914C154.691 17.8408 154.36 19.0805 153.678 20.1042ZM159.929 7.54296H162.24V5.30402H159.944L159.929 7.54296ZM160.112 22.8295H161.991V10.5153H160.112V22.8527V22.8295ZM171.482 12.098V10.5153H168.133V6.63966L166.247 7.34994V10.5153H163.973V12.1058H166.247V19.0542C166.213 19.5909 166.284 20.1294 166.456 20.6356C166.629 21.1418 166.899 21.6049 167.249 21.9957C167.598 22.3311 168.006 22.5903 168.45 22.7586C168.895 22.9269 169.366 23.0008 169.837 22.9762C170.387 22.982 170.934 22.9014 171.46 22.7369V21.0383C171.058 21.1852 170.636 21.2609 170.21 21.2622C169.844 21.27 169.494 21.2005 169.164 21.0615C168.843 20.9071 168.58 20.6369 168.433 20.3049C168.232 19.8327 168.139 19.3168 168.163 18.7994V12.0749L171.482 12.098ZM11.0925 23.3004H19.867C20.2693 23.3219 20.6683 23.2128 21.0103 22.9879C21.3523 22.763 21.6209 22.433 21.7801 22.0422C21.9393 21.6514 21.9814 21.2185 21.9009 20.8017C21.8203 20.3849 21.6209 20.0041 21.3294 19.7104C21.1345 19.5167 20.9044 19.3669 20.653 19.27C20.4016 19.1731 20.1342 19.1312 19.867 19.1468H11.0925C9.2915 19.1468 7.56405 18.3925 6.28918 17.0493C5.01432 15.7061 4.29616 13.8838 4.29228 11.9822C4.29132 11.0398 4.46666 10.1064 4.80824 9.23568C5.14982 8.36496 5.65091 7.57405 6.28275 6.90835C6.9146 6.24265 7.66474 5.71527 8.49013 5.35648C9.31552 4.9977 10.1999 4.81458 11.0925 4.81763H13.0667V0.64857H11.0925C8.28758 0.715067 5.61845 1.9369 3.65517 4.05311C1.6919 6.16933 0.590091 9.01218 0.585072 11.9745C0.582644 14.9405 1.68302 17.7891 3.64944 19.9072C5.61587 22.0253 8.29119 23.2438 11.0998 23.3004H11.0925ZM26.6672 11.9822H30.6084C30.6084 10.4926 30.3302 9.01753 29.7899 7.64146C29.2495 6.26539 28.4576 5.01529 27.4593 3.96266C26.4609 2.91003 25.2759 2.07552 23.9719 1.50686C22.6679 0.938197 21.2705 0.646541 19.8596 0.64857H17.8927V4.81763H19.867C21.668 4.81762 23.3954 5.57197 24.6703 6.91515C25.9451 8.25833 26.6633 10.0806 26.6672 11.9822ZM19.867 9.8977H11.0925C10.6901 9.87626 10.2911 9.98532 9.94915 10.2102C9.60717 10.4352 9.33855 10.7652 9.17936 11.156C9.02017 11.5468 8.97803 11.9796 9.0586 12.3964C9.13916 12.8132 9.33859 13.194 9.63008 13.4877C9.82494 13.6814 10.0551 13.8313 10.3065 13.9281C10.5579 14.025 10.8253 14.0669 11.0925 14.0513H19.867C21.668 14.0513 23.3954 14.8057 24.6703 16.1488C25.9451 17.492 26.6633 19.3143 26.6672 21.2159C26.6681 22.1584 26.4928 23.0918 26.1512 23.9625C25.8096 24.8332 25.3085 25.6241 24.6767 26.2898C24.0449 26.9555 23.2947 27.4829 22.4693 27.8417C21.6439 28.2004 20.7596 28.3836 19.867 28.3805H17.8927V32.5496H19.867C22.6732 32.4851 25.3441 31.2641 27.309 29.1477C29.2738 27.0313 30.3766 24.1873 30.3817 21.2236C30.3841 18.2576 29.2837 15.4091 27.3173 13.291C25.3509 11.1728 22.6756 9.95435 19.867 9.8977ZM4.29228 21.2159H0.358398C0.358397 22.7056 0.636527 24.1806 1.17688 25.5567C1.71723 26.9328 2.50921 28.1829 3.50751 29.2355C4.50581 30.2881 5.69086 31.1226 6.99487 31.6913C8.29888 32.26 9.69627 32.5516 11.1071 32.5496H13.0814V28.3805H11.1071C9.3073 28.3765 7.58209 27.6208 6.30805 26.2785C5.03402 24.9362 4.31463 23.1163 4.30691 21.2159H4.29228Z" fill="#CCCCCC"/>
</g>
<defs>
<clipPath id="clip0_291_108">
<rect width="171.833" height="33.198" fill="white"/>
</clipPath>
</defs>
</svg>
